# xmcd
#
# Track frame offsets: 
#        150
#        15313
#        34134
#        49085
#        67642
#        85399
#        101345
#        114144
#        136768
#        157406
#        177557
#
# Disc length: 2748 seconds
#
# Revision: 0
# Processed by: cddbd v1.5.1PL0 Copyright (c) Steve Scherf et al.
# Submitted via: ExactAudioCopy v0.95a4
#
DISCID=820aba0b
DTITLE=Tûzkerék XT - Éjfélkor megszólal egy blues
DYEAR=2000
DGENRE=Blues
TTITLE0=Foxy Lady
TTITLE1=A szél kiállt: Mary!
TTITLE2=Vörös Ház (gyors változat)
TTITLE3=Hej! R.B. tûzgitáros
TTITLE4=Tobacco Road
TTITLE5=Bíbor köd
TTITLE6=Kicsi szárny
TTITLE7=A Felkelõ Nap Háza
TTITLE8=Vadnak születtem
TTITLE9=Éjfélkor megszólal egy blues
TTITLE10=Vörös Ház (lassú változat)
EXTD=
EXTT0=
EXTT1=
EXTT2=
EXTT3=
EXTT4=
EXTT5=
EXTT6=
EXTT7=
EXTT8=
EXTT9=
EXTT10=
PLAYORDER=
